<svg width="177" height="177" viewBox="0 0 177 177" fill="none" xmlns="http://www.w3.org/2000/svg">
<g filter="url(#filter0_d_562_403)">
<rect x="33.9824" y="29.7345" width="108.383" height="108.383" rx="18.0209" fill="white" shape-rendering="crispEdges"/>
<path d="M86.697 66.6481C87.0123 66.6481 87.1711 66.4634 87.2511 66.1728C88.0688 61.7644 88.017 61.6585 92.6101 60.7879C92.9255 60.735 93.1113 60.5514 93.1113 60.2338C93.1113 59.9173 92.9266 59.7326 92.609 59.6796C88.0429 58.756 88.1747 58.6502 87.2511 54.2936C87.1723 54.0042 87.0135 53.8194 86.697 53.8194C86.3794 53.8194 86.2217 54.0042 86.1417 54.2936C85.2181 58.6502 85.3758 58.7549 80.7839 59.6796C80.4933 59.7314 80.2815 59.9161 80.2815 60.2338C80.2815 60.5503 80.4933 60.735 80.7827 60.7879C85.3769 61.7115 85.324 61.7644 86.1417 66.1728C86.2205 66.4634 86.3805 66.6481 86.697 66.6481ZM73.9201 84.8098C74.4214 84.8098 74.7649 84.4933 74.8178 84.018C75.7673 76.9696 76.0049 76.9696 83.291 75.5707C83.7663 75.4918 84.1098 75.1742 84.1098 74.673C84.1098 74.1977 83.7663 73.8553 83.291 73.7754C76.0049 72.7729 75.7414 72.5353 74.8178 65.3551C74.7649 64.8798 74.4214 64.5363 73.9201 64.5363C73.4448 64.5363 73.1013 64.8798 73.0484 65.381C72.1777 72.4553 71.8083 72.4294 64.5752 73.7754C64.0999 73.8812 63.7563 74.1977 63.7563 74.673C63.7563 75.2013 64.0999 75.4918 64.6799 75.5707C71.8613 76.7319 72.1777 76.9166 73.0484 83.9651C73.1013 84.4933 73.4448 84.8098 73.9201 84.8098ZM91.8172 114.033C92.5042 114.033 93.0054 113.531 93.1372 112.818C95.0114 98.3525 97.0444 96.1607 111.352 94.5771C112.091 94.4983 112.593 93.9441 112.593 93.2571C112.593 92.57 112.091 92.0429 111.352 91.9371C97.0444 90.3535 95.0114 88.1628 93.1372 73.6965C93.0054 72.9836 92.5042 72.5083 91.8172 72.5083C91.1312 72.5083 90.63 72.9836 90.5242 73.6965C88.65 88.1628 86.5911 90.3535 72.3095 91.9371C71.5436 92.0429 71.0424 92.5712 71.0424 93.2571C71.0424 93.9441 71.5436 94.4983 72.3095 94.5771C86.5641 96.4513 88.5441 98.3784 90.5242 112.818C90.63 113.531 91.1312 114.033 91.8172 114.033Z" fill="#0E4259"/>
</g>
<defs>
<filter id="filter0_d_562_403" x="0.00012207" y="0" width="176.347" height="176.348" filterUnits="userSpaceOnUse" color-interpolation-filters="sRGB">
<feFlood flood-opacity="0" result="BackgroundImageFix"/>
<feColorMatrix in="SourceAlpha" type="matrix" values="0 0 0 0 0 0 0 0 0 0 0 0 0 0 0 0 0 0 127 0" result="hardAlpha"/>
<feOffset dy="4.24779"/>
<feGaussianBlur stdDeviation="16.9911"/>
<feComposite in2="hardAlpha" operator="out"/>
<feColorMatrix type="matrix" values="0 0 0 0 0 0 0 0 0 0 0 0 0 0 0 0 0 0 0.1 0"/>
<feBlend mode="normal" in2="BackgroundImageFix" result="effect1_dropShadow_562_403"/>
<feBlend mode="normal" in="SourceGraphic" in2="effect1_dropShadow_562_403" result="shape"/>
</filter>
</defs>
</svg>
