<svg width="178" height="178" viewBox="0 0 178 178" fill="none" xmlns="http://www.w3.org/2000/svg">
<g filter="url(#filter0_d_1_2814)">
<rect x="33.9824" y="29.7345" width="109.31" height="109.31" rx="18.0209" fill="white" shape-rendering="crispEdges"/>
<path fill-rule="evenodd" clip-rule="evenodd" d="M115.304 84.3894C115.304 99.1174 103.365 111.056 88.6371 111.056C73.9091 111.056 61.9705 99.1174 61.9705 84.3894C61.9705 69.6614 73.9091 57.7227 88.6371 57.7227C103.365 57.7227 115.304 69.6614 115.304 84.3894ZM99.3838 76.3094C99.7583 76.6844 99.9687 77.1927 99.9687 77.7227C99.9687 78.2527 99.7583 78.761 99.3838 79.136L86.0505 92.4694C85.6755 92.8439 85.1671 93.0543 84.6371 93.0543C84.1071 93.0543 83.5988 92.8439 83.2238 92.4694L77.8905 87.136C77.694 86.9529 77.5364 86.7321 77.427 86.4868C77.3177 86.2415 77.259 85.9766 77.2542 85.7081C77.2495 85.4396 77.2989 85.1728 77.3995 84.9238C77.5001 84.6748 77.6498 84.4485 77.8397 84.2586C78.0296 84.0687 78.2558 83.919 78.5049 83.8184C78.7539 83.7178 79.0206 83.6684 79.2892 83.6731C79.5577 83.6779 79.8226 83.7367 80.0679 83.846C80.3132 83.9553 80.534 84.1129 80.7171 84.3094L84.6371 88.2294L90.5971 82.2694L96.5571 76.3094C96.9321 75.9348 97.4405 75.7245 97.9705 75.7245C98.5005 75.7245 99.0088 75.9348 99.3838 76.3094Z" fill="#0E4259"/>
</g>
<defs>
<filter id="filter0_d_1_2814" x="0.00012207" y="0" width="177.274" height="177.274" filterUnits="userSpaceOnUse" color-interpolation-filters="sRGB">
<feFlood flood-opacity="0" result="BackgroundImageFix"/>
<feColorMatrix in="SourceAlpha" type="matrix" values="0 0 0 0 0 0 0 0 0 0 0 0 0 0 0 0 0 0 127 0" result="hardAlpha"/>
<feOffset dy="4.24779"/>
<feGaussianBlur stdDeviation="16.9911"/>
<feComposite in2="hardAlpha" operator="out"/>
<feColorMatrix type="matrix" values="0 0 0 0 0 0 0 0 0 0 0 0 0 0 0 0 0 0 0.1 0"/>
<feBlend mode="normal" in2="BackgroundImageFix" result="effect1_dropShadow_1_2814"/>
<feBlend mode="normal" in="SourceGraphic" in2="effect1_dropShadow_1_2814" result="shape"/>
</filter>
</defs>
</svg>
