<svg width="178" height="178" viewBox="0 0 178 178" fill="none" xmlns="http://www.w3.org/2000/svg">
<g filter="url(#filter0_d_1_2427)">
<rect x="33.9823" y="29.7345" width="109.31" height="109.31" rx="18.0209" fill="white" shape-rendering="crispEdges"/>
<path d="M110.052 69.3001L89.1291 59.9954C88.975 59.923 88.807 59.8855 88.6368 59.8855C88.4666 59.8855 88.2985 59.923 88.1444 59.9954L67.2214 69.3001C67.005 69.3944 66.8204 69.5491 66.6894 69.7454C66.5585 69.9418 66.4868 70.1717 66.4829 70.4078V77.0047C66.4829 89.1154 73.7198 103.786 88.1937 108.857C88.481 108.955 88.7925 108.955 89.0798 108.857C103.554 103.786 110.791 89.1154 110.791 77.0047V70.4078C110.787 70.1717 110.715 69.9418 110.584 69.7454C110.453 69.5491 110.268 69.3944 110.052 69.3001ZM100.176 77.4478L87.1795 93.9942C86.9906 94.2327 86.7536 94.4288 86.4838 94.5696C86.2141 94.7104 85.9177 94.7928 85.614 94.8114L85.486 94.8164C84.9137 94.8154 84.365 94.588 83.9598 94.1838L77.2644 87.4884C76.8607 87.0836 76.6342 86.535 76.6349 85.9633C76.6356 85.3916 76.8634 84.8435 77.2681 84.4398C77.6729 84.036 78.2215 83.8095 78.7932 83.8102C79.3649 83.8109 79.913 84.0387 80.3168 84.4434L85.294 89.4207L96.7894 74.7868C97.1487 74.3562 97.6618 74.0825 98.2196 74.0239C98.7775 73.9652 99.3362 74.1263 99.7773 74.4729C100.218 74.8194 100.507 75.3242 100.582 75.8801C100.657 76.436 100.512 76.9992 100.179 77.4502L100.176 77.4478Z" fill="#0E4259"/>
</g>
<defs>
<filter id="filter0_d_1_2427" x="0" y="0" width="177.274" height="177.274" filterUnits="userSpaceOnUse" color-interpolation-filters="sRGB">
<feFlood flood-opacity="0" result="BackgroundImageFix"/>
<feColorMatrix in="SourceAlpha" type="matrix" values="0 0 0 0 0 0 0 0 0 0 0 0 0 0 0 0 0 0 127 0" result="hardAlpha"/>
<feOffset dy="4.24779"/>
<feGaussianBlur stdDeviation="16.9911"/>
<feComposite in2="hardAlpha" operator="out"/>
<feColorMatrix type="matrix" values="0 0 0 0 0 0 0 0 0 0 0 0 0 0 0 0 0 0 0.1 0"/>
<feBlend mode="normal" in2="BackgroundImageFix" result="effect1_dropShadow_1_2427"/>
<feBlend mode="normal" in="SourceGraphic" in2="effect1_dropShadow_1_2427" result="shape"/>
</filter>
</defs>
</svg>
