<svg width="47" height="47" viewBox="0 0 47 47" fill="none" xmlns="http://www.w3.org/2000/svg">
<rect width="47" height="47" rx="14.3878" fill="#E8F4F9"/>
<path d="M27.7936 17.2132C27.7008 17.1204 27.6273 17.0102 27.5771 16.8889C27.5269 16.7676 27.5011 16.6377 27.5012 16.5064C27.5012 16.3752 27.5271 16.2453 27.5774 16.124C27.6276 16.0028 27.7013 15.8927 27.7941 15.7999C27.8869 15.7071 27.9971 15.6336 28.1184 15.5834C28.2397 15.5332 28.3696 15.5074 28.5009 15.5074C28.6321 15.5075 28.762 15.5334 28.8833 15.5836C29.0045 15.6339 29.1146 15.7076 29.2074 15.8004L34.2002 20.8001C34.3872 20.9875 34.4922 21.2413 34.4922 21.506C34.4922 21.7707 34.3872 22.0246 34.2002 22.2119L29.2074 27.2057C29.1146 27.2985 29.0045 27.3722 28.8833 27.4224C28.762 27.4727 28.6321 27.4986 28.5009 27.4986C28.3696 27.4987 28.2397 27.4729 28.1184 27.4227C27.9971 27.3725 27.8869 27.299 27.7941 27.2062C27.7013 27.1134 27.6276 27.0033 27.5774 26.8821C27.5271 26.7608 27.5012 26.6309 27.5012 26.4996C27.5011 26.3684 27.5269 26.2384 27.5771 26.1172C27.6273 25.9959 27.7008 25.8857 27.7936 25.7929L31.0848 22.5027H24.5004C22.4238 22.5027 20.4286 21.6944 18.9374 20.2491C17.4463 18.8038 16.5761 16.8349 16.5112 14.7593L16.5072 14.5095C16.5072 14.2445 16.6125 13.9904 16.7999 13.803C16.9872 13.6156 17.2414 13.5103 17.5064 13.5103C17.7714 13.5103 18.0255 13.6156 18.2129 13.803C18.4002 13.9904 18.5055 14.2445 18.5055 14.5095C18.5055 16.0606 19.1066 17.5513 20.1826 18.6684C21.2585 19.7856 22.7256 20.4422 24.2756 20.5004L24.5004 20.5044H31.0808L27.7936 17.2132ZM20.5038 25.0006C20.5038 25.663 20.2406 26.2984 19.7722 26.7668C19.3038 27.2353 18.6684 27.4984 18.0059 27.4984C17.3435 27.4984 16.7081 27.2353 16.2397 26.7668C15.7712 26.2984 15.5081 25.663 15.5081 25.0006C15.5081 24.3381 15.7712 23.7027 16.2397 23.2343C16.7081 22.7659 17.3435 22.5027 18.0059 22.5027C18.6684 22.5027 19.3038 22.7659 19.7722 23.2343C20.2406 23.7027 20.5038 24.3381 20.5038 25.0006ZM22.5021 30.371C22.5021 31.9257 21.2172 33.4933 18.0059 33.4933C14.7947 33.4933 13.5098 31.9317 13.5098 30.371V30.2681C13.5098 29.2889 14.3031 28.4976 15.2813 28.4976H20.7306C21.7098 28.4976 22.5021 29.2899 22.5021 30.2681V30.371Z" fill="#557C8D"/>
</svg>
